<svg xmlns="http://www.w3.org/2000/svg" viewBox="0 0 48 48" fill="none">
  <rect width="48" height="48" rx="10" fill="#fff" fill-opacity="0.12"/>
  <path d="M9 30c0-2 1-3 3-3 4 0 6-2 9-5 2-2 4-3 6-3 3 0 4 2 7 2 2 0 4 1 5 3l-1 6c0 1-1 2-2 2H11c-1 0-2-1-2-2z" fill="#fff"/>
  <path d="M9 30c0-2 1-3 3-3 4 0 6-2 9-5" stroke="#fff" stroke-width="1.5" stroke-linecap="round" fill="none" opacity="0.4"/>
  <circle cx="15" cy="33" r="1.4" fill="#5c6bc0"/>
  <circle cx="22" cy="33" r="1.4" fill="#5c6bc0"/>
  <circle cx="29" cy="33" r="1.4" fill="#5c6bc0"/>
</svg>
